<svg width="27" height="22" viewBox="0 0 27 22" fill="none" xmlns="http://www.w3.org/2000/svg">
<g id="briefcase.fill">
<g id="Group">
<path id="Vector" d="M11.9196 14.4435C11.1334 14.4435 10.6729 14.001 10.6729 13.2068V12.2877C7.37098 12.0608 4.08027 11.3801 0.666016 10.0752V8.20319C4.86645 10.0639 9.07811 10.722 13.6604 10.722C18.254 10.722 22.4656 10.0639 26.666 8.20319V10.0752C23.2518 11.3801 19.961 12.0608 16.6591 12.2877V13.2068C16.6591 14.001 16.1986 14.4435 15.4124 14.4435H11.9196ZM4.13642 21.9886H23.1956C25.5205 21.9886 26.666 20.854 26.666 18.5281V7.48839C26.666 5.16244 25.5205 4.02785 23.1956 4.02785H4.13642C1.82282 4.02785 0.666016 5.16244 0.666016 7.48839V18.5281C0.666016 20.854 1.82282 21.9886 4.13642 21.9886ZM7.96624 5.01495H9.70705V3.0067C9.70705 2.1444 10.2125 1.65652 11.0885 1.65652H16.2436C17.1196 1.65652 17.6138 2.1444 17.6138 3.0067V4.99225H19.3546V3.13151C19.3546 0.998451 18.2427 0 16.2099 0H11.1109C9.19042 0 7.96624 0.998451 7.96624 3.13151V5.01495Z" fill="#CAFF33"/>
</g>
</g>
</svg>
