<svg width="19" height="24" viewBox="0 0 19 24" fill="none" xmlns="http://www.w3.org/2000/svg">
<g id="Frame" clip-path="url(#clip0_108_2458)">
<g id="Group">
<path id="Vector" d="M11.154 5.50259C11.1804 5.53339 11.1848 5.54219 11.1892 5.54219C11.6247 5.60377 11.827 5.9293 12.0602 6.25483C12.3285 6.62435 12.6496 6.96308 12.9928 7.27102C13.8946 8.08484 14.4489 9.07023 14.6336 10.2712C14.9547 12.3739 13.7494 14.5339 11.7698 15.3741C8.76527 16.6498 5.40879 14.7098 5.06127 11.4633C4.87651 9.73449 5.50997 8.30479 6.82969 7.17863C7.2564 6.81351 7.61272 6.3912 7.90746 5.91171C7.96025 5.82372 8.05703 5.75334 8.14941 5.70935C8.29897 5.63896 8.46614 5.59937 8.6553 5.53339C8.59371 5.4586 8.54972 5.40581 8.50133 5.35303C8.20659 5.04949 7.91186 4.73716 7.61272 4.44242C7.50714 4.33684 7.45875 4.22687 7.46315 4.0773C7.47195 3.45263 7.46755 2.83237 7.46755 2.2077C7.46755 1.95695 7.77549 1.55664 8.02623 1.50825C8.31217 1.45106 8.60691 1.42027 8.89285 1.36308C8.97643 1.34548 9.06881 1.2927 9.1172 1.22671C9.53511 0.66363 10.2698 0.659231 10.6833 1.21791C10.7405 1.2927 10.8504 1.34988 10.9428 1.37188C11.2068 1.42907 11.4751 1.45986 11.7434 1.50825C12.0118 1.56104 12.2977 1.90856 12.2977 2.1813C12.2977 2.81037 12.2933 3.44383 12.3021 4.0729C12.3065 4.23566 12.2537 4.34564 12.1437 4.46002C11.8094 4.79874 11.4883 5.14627 11.154 5.50259ZM9.30636 7.95287C9.29316 8.00566 9.27996 8.03645 9.28436 8.06285C9.34155 8.35758 9.20518 8.48515 8.93244 8.59513C8.41335 8.81069 8.1802 9.24619 8.1934 9.80487C8.20659 10.3592 8.50573 10.7023 9.00722 10.8826C9.22717 10.9618 9.45593 11.019 9.67588 11.0938C9.87823 11.1598 10.0806 11.2258 10.2742 11.305C10.4369 11.3709 10.5293 11.4985 10.5117 11.6833C10.4941 11.8724 10.3753 11.9824 10.2082 12.0132C10.0366 12.0484 9.85184 12.0792 9.68908 12.0396C9.37234 11.9648 9.06881 11.8372 8.73448 11.7229C8.58491 11.9208 8.41335 12.1452 8.20659 12.4223C8.51893 12.5587 8.78727 12.6995 9.07321 12.7962C9.23597 12.849 9.30196 12.9194 9.27996 13.0866C9.26677 13.2053 9.27556 13.3285 9.27556 13.4649C9.52631 13.4649 9.73747 13.4649 9.94862 13.4649C10.2522 13.4649 10.2654 13.4649 10.2478 13.1526C10.239 12.959 10.2829 12.8534 10.4941 12.827C10.6041 12.8138 10.7141 12.7522 10.8152 12.6951C11.2815 12.4399 11.4751 12.0308 11.4663 11.5117C11.4575 11.019 11.2111 10.6803 10.7712 10.4823C10.5733 10.3943 10.3621 10.3284 10.151 10.258C9.88703 10.17 9.62309 10.0908 9.35915 9.99403C9.19638 9.93244 9.1304 9.80047 9.14359 9.62451C9.15679 9.45735 9.25797 9.34297 9.41193 9.31658C9.5967 9.28578 9.79465 9.26819 9.97501 9.29898C10.195 9.33857 10.4017 9.43975 10.6349 9.51893C10.78 9.29458 10.9296 9.05703 11.1056 8.77989C10.9032 8.68751 10.7317 8.57314 10.5469 8.54234C10.2873 8.49835 10.2082 8.37958 10.239 8.13323C10.2478 8.07604 10.1686 7.96167 10.1202 7.95727C9.85624 7.94407 9.5791 7.95287 9.30636 7.95287Z" fill="#CAFF33"/>
<path id="Vector_2" d="M9.54376 23.1912C8.60676 23.1912 7.66536 23.1648 6.72837 23.2C6.0993 23.222 5.56262 23.0328 5.05672 22.6985C4.33968 22.219 3.68422 21.6735 3.11234 21.0225C2.26772 20.0591 1.41431 19.0957 0.569687 18.1323C-0.120965 17.3405 0.191368 16.1703 1.17676 15.8492C1.29113 15.8096 1.4231 15.7964 1.54188 15.7964C2.32491 15.792 3.11234 15.7876 3.89537 15.8008C4.00535 15.8008 4.13732 15.858 4.2165 15.9328C4.75319 16.4519 5.28108 16.9841 5.80456 17.5164C5.91014 17.622 6.00692 17.644 6.15649 17.622C6.47322 17.5736 6.79875 17.5296 7.11988 17.5296C8.60236 17.5208 10.0804 17.5252 11.5629 17.5252C12.0688 17.5252 12.4427 17.7848 12.5747 18.2159C12.7771 18.8669 12.302 19.4784 11.5761 19.4828C10.5951 19.4872 9.60975 19.4828 8.62876 19.4828C8.4528 19.4828 8.27683 19.4784 8.10087 19.4828C7.78414 19.4916 7.57738 19.694 7.57299 19.9799C7.57299 20.2702 7.77974 20.4902 8.09207 20.4902C9.65374 20.4946 11.2154 20.4946 12.7771 20.4902C13.0938 20.4902 13.3226 20.3142 13.5425 20.1031C14.5631 19.1221 15.5837 18.1411 16.6086 17.1645C17.0266 16.7642 17.5808 16.7466 17.9768 17.1029C18.4035 17.49 18.4123 18.1147 17.9812 18.5502C17.5281 19.0121 17.0661 19.4476 16.6086 19.8919C15.5969 20.8729 14.5851 21.8495 13.5777 22.8305C13.3314 23.068 13.0586 23.1912 12.7111 23.1912C11.6553 23.1868 10.5995 23.1912 9.54376 23.1912Z" fill="#CAFF33"/>
<path id="Vector_3" d="M4.3089 4.60083C4.73561 5.02754 5.16232 5.45425 5.58023 5.87216C5.32069 6.1317 5.04794 6.40444 4.7752 6.67279C4.37049 6.25488 3.94378 5.81497 3.53467 5.39266C3.77662 5.14631 4.04936 4.86477 4.3089 4.60083Z" fill="#CAFF33"/>
<path id="Vector_4" d="M15.4169 4.60083C15.6764 4.86037 15.9447 5.13752 16.1955 5.38826C15.7776 5.80617 15.3421 6.24168 14.9198 6.65959C14.6646 6.40444 14.3963 6.1273 14.1279 5.85896C14.5458 5.44985 14.9769 5.02754 15.4169 4.60083Z" fill="#CAFF33"/>
<path id="Vector_5" d="M16.4283 11.5337C16.4283 11.1598 16.4239 10.8166 16.4327 10.4735C16.4327 10.4295 16.5163 10.3503 16.5603 10.3503C17.097 10.3416 17.6293 10.3416 18.166 10.3503C18.21 10.3503 18.2935 10.4163 18.2935 10.4515C18.3023 10.8079 18.2979 11.1642 18.2979 11.5337C17.6689 11.5337 17.0618 11.5337 16.4283 11.5337Z" fill="#CAFF33"/>
<path id="Vector_6" d="M3.28417 11.5469C2.6771 11.5469 2.10963 11.5513 1.53775 11.5425C1.49376 11.5425 1.42337 11.4589 1.41897 11.4105C1.41018 11.1026 1.40578 10.7947 1.41897 10.4867C1.41897 10.4383 1.50695 10.3503 1.55534 10.3503C2.08323 10.3416 2.61112 10.3416 3.13901 10.3503C3.18739 10.3503 3.27538 10.4207 3.27538 10.4647C3.28857 10.8079 3.28417 11.1598 3.28417 11.5469Z" fill="#CAFF33"/>
</g>
</g>
<defs>
<clipPath id="clip0_108_2458">
<rect width="18.1021" height="22.4" fill="white" transform="translate(0.200195 0.800049)"/>
</clipPath>
</defs>
</svg>
