<svg width="23" height="16" viewBox="0 0 23 16" fill="none" xmlns="http://www.w3.org/2000/svg">
<g id="Frame" clip-path="url(#clip0_108_2471)">
<g id="Group">
<path id="Vector" d="M19.7262 7.21472C19.7262 7.813 19.7343 8.40734 19.7222 9.00562C19.7142 9.32838 19.8065 9.61177 19.9752 9.87942C20.4088 10.58 20.9829 11.1665 21.5651 11.7451C21.7819 11.9616 22.0067 12.1663 22.2355 12.367C22.348 12.4654 22.4001 12.5677 22.4001 12.7212C22.3921 13.3786 22.3921 14.0319 22.3961 14.6893C22.4001 15.2364 22.1593 15.6457 21.6574 15.874C21.1435 16.1062 20.6617 16.0078 20.2401 15.6497C19.3689 14.9018 18.5017 14.15 17.6345 13.4022C17.0443 12.8905 16.4581 12.3709 15.8559 11.875C15.6431 11.6979 15.3902 11.568 15.1453 11.4342C14.7839 11.2374 14.3945 11.1311 13.9729 11.1468C13.6678 11.1586 13.3546 11.1626 13.0495 11.139C12.6039 11.1035 12.2867 10.8005 12.2265 10.3832C12.1703 10.0172 12.3911 9.62358 12.7604 9.48188C12.901 9.42678 13.0575 9.40316 13.2101 9.40316C14.3664 9.39529 15.5227 9.39923 16.683 9.39923C17.1166 9.39923 17.2732 9.24572 17.2732 8.81669C17.2732 7.95076 17.2691 7.08483 17.2732 6.21891C17.2772 5.88828 17.1607 5.6285 16.9078 5.40415C15.4504 4.121 14.001 2.82998 12.5477 1.53896C12.1582 1.19258 12.114 0.680899 12.4393 0.306976C12.7604 -0.0669481 13.2864 -0.102372 13.6999 0.212511C15.5588 1.62948 17.4137 3.04646 19.2806 4.45556C19.5897 4.68779 19.7343 4.97118 19.7303 5.34511C19.7222 5.967 19.7262 6.58889 19.7262 7.21472Z" fill="#CAFF33"/>
<path id="Vector_2" d="M0.804021 13.7643C0.804021 13.41 0.808036 13.0558 0.800006 12.7015C0.795991 12.5638 0.8522 12.4732 0.944542 12.3788C1.55079 11.7687 2.149 11.1507 2.7432 10.5288C2.86766 10.3989 2.96001 10.2454 3.06841 10.1037C3.35346 9.72195 3.48595 9.30473 3.47391 8.81666C3.44982 7.69095 3.47792 6.56131 3.46186 5.43166C3.45384 4.98689 3.61443 4.67201 3.97978 4.39648C5.83465 3.011 7.66945 1.6019 9.51227 0.19673C9.8977 -0.0984731 10.4277 -0.0512406 10.7408 0.303003C11.062 0.665119 11.0339 1.18468 10.6605 1.52318C10.0944 2.03486 9.5203 2.53474 8.95019 3.04249C8.04685 3.8415 7.1435 4.64445 6.24015 5.44347C6.02737 5.6324 5.92298 5.86069 5.92298 6.13621C5.92298 7.05331 5.91897 7.97041 5.92298 8.89144C5.92298 9.22994 6.09963 9.39525 6.44893 9.39525C7.64134 9.39919 8.82975 9.39526 10.0222 9.39919C10.5842 9.39919 10.9777 9.78492 10.9657 10.3045C10.9576 10.702 10.6645 11.0602 10.259 11.1192C10.0181 11.1547 9.76521 11.1704 9.5203 11.1468C8.69726 11.0681 8.00268 11.3633 7.38841 11.8435C6.76209 12.3315 6.17592 12.8747 5.5777 13.3903C4.69844 14.1461 3.8232 14.9096 2.93993 15.6614C2.22529 16.2715 1.16937 16.0039 0.864244 15.134C0.824096 15.0238 0.812051 14.9018 0.808036 14.7876C0.800006 14.4491 0.804021 14.1067 0.804021 13.7643Z" fill="#CAFF33"/>
<path id="Vector_3" d="M12.1699 8.02949C12.1699 8.21842 12.1699 8.39554 12.1699 8.58841C11.8326 8.58841 11.5115 8.58841 11.1622 8.58841C11.1622 8.4349 11.1581 8.28533 11.1622 8.13576C11.1662 8.02555 11.1341 7.97832 11.0176 7.95077C10.6844 7.87205 10.3752 7.73822 10.0862 7.50993C10.2709 7.26983 10.4475 7.04154 10.6081 6.829C10.9132 6.94314 11.1903 7.07697 11.4834 7.14388C11.6961 7.19111 11.933 7.15962 12.1538 7.1242C12.3225 7.09665 12.4309 6.96676 12.4429 6.78964C12.459 6.60858 12.3626 6.48263 12.202 6.41965C11.929 6.31731 11.6439 6.23859 11.3669 6.14806C11.1662 6.08115 10.9574 6.02211 10.7607 5.93945C10.299 5.74659 10.0541 5.40415 10.042 4.90034C10.03 4.37291 10.2307 3.94782 10.7125 3.71953C11.0257 3.56996 11.2947 3.45975 11.1381 3.02285C11.4793 3.02285 11.7764 3.01891 12.0776 3.03072C12.1097 3.03072 12.1659 3.12912 12.1659 3.18422C12.186 3.51879 12.186 3.51092 12.5031 3.62112C12.6878 3.6841 12.8645 3.77463 13.0652 3.86516C12.8966 4.121 12.7601 4.34536 12.6075 4.5579C12.5834 4.58939 12.4871 4.58545 12.4309 4.56971C12.1659 4.5028 11.9089 4.4162 11.6439 4.36504C11.5396 4.34536 11.4191 4.37684 11.3107 4.4044C11.1501 4.44769 11.0417 4.55397 11.0297 4.72715C11.0176 4.8964 11.0939 5.02629 11.2505 5.08927C11.4552 5.17192 11.664 5.2349 11.8728 5.30181C12.1016 5.3766 12.3385 5.4317 12.5593 5.51436C13.1977 5.75839 13.4547 6.14413 13.4225 6.77783C13.3904 7.36036 13.0251 7.79333 12.4228 7.96258C12.3506 7.98619 12.2743 8.00587 12.1699 8.02949Z" fill="#CAFF33"/>
</g>
</g>
<defs>
<clipPath id="clip0_108_2471">
<rect width="21.6" height="16" fill="white" transform="translate(0.799805)"/>
</clipPath>
</defs>
</svg>
